<?xml version="1.0" encoding="iso-8859-1"?>
<!-- Generator: Adobe Illustrator 19.0.0, SVG Export Plug-In . SVG Version: 6.00 Build 0)  -->
<svg version="1.1" id="Capa_1" xmlns="http://www.w3.org/2000/svg" xmlns:xlink="http://www.w3.org/1999/xlink" x="0px" y="0px"
	 viewBox="0 0 512 512" style="enable-background:new 0 0 512 512;" xml:space="preserve">
<g>
	<g>
		<path d="M452,243.509v-88.245l-151-37.438V242h-30V0h-30v242H90v-30H60v31.509C25.808,250.478,0,280.781,0,317v135h51.509
			c6.968,34.192,37.272,60,73.491,60s66.522-25.808,73.491-60h105.018c6.968,34.192,37.272,60,73.491,60s66.522-25.808,73.491-60
			H512V317C512,280.781,486.192,250.478,452,243.509z M331,156.173l91,22.562V242h-91V156.173z M51.509,422H30v-30h35.041
			C58.476,400.726,53.767,410.921,51.509,422z M125,482c-24.813,0-45-20.187-45-45s20.187-45,45-45s45,20.187,45,45
			S149.813,482,125,482z M303.509,422H198.491c-2.258-11.079-6.967-21.274-13.532-30h132.082
			C310.476,400.726,305.767,410.921,303.509,422z M377,482c-24.813,0-45-20.187-45-45s20.187-45,45-45s45,20.187,45,45
			S401.813,482,377,482z M482,422h-31.509c-2.258-11.079-6.967-21.274-13.532-30H482V422z M482,362H30v-45c0-24.813,20.187-45,45-45
			h362c24.813,0,45,20.187,45,45V362z"/>
	</g>
</g>
<g>
</g>
<g>
</g>
<g>
</g>
<g>
</g>
<g>
</g>
<g>
</g>
<g>
</g>
<g>
</g>
<g>
</g>
<g>
</g>
<g>
</g>
<g>
</g>
<g>
</g>
<g>
</g>
<g>
</g>
</svg>
